# xmcd
#
# Track frame offsets: 
#        150
#        8249
#        25251
#        44376
#        61290
#        79892
#        98529
#        117327
#        136716
#        152839
#        168423
#        189885
#        208183
#
# Disc length: 2967 seconds
#
# Revision: 0
# Processed by: cddbd v1.5.2PL0 Copyright (c) Steve Scherf et al.
# Submitted via: ExactAudioCopyFreeDBPlugin 1.0
#
DISCID=a10b950d
DTITLE=Muchach - Insoumis
DYEAR=2008
DGENRE=Hip-Hop
TTITLE0=Intro
TTITLE1=Pour ma ville
TTITLE2=Mentalidad del pueblo
TTITLE3=On m'avait dit
TTITLE4=Muchach feat. Chakal - Los quiebras suenos
TTITLE5=Laisse le mic pleurer
TTITLE6=Muchach feat. Spiral, Pacino and Scorpion - Pa' nuestra tierra
TTITLE7=S.O.S.
TTITLE8=Muchach feat. V.I.R.U.S. - L'Escadron
TTITLE9=Sans frontière
TTITLE10=Muchach feat. VX Crew - Suis tes rêves
TTITLE11=Grito de revolucion
TTITLE12=Muchach feat. Jo2Plainp and Menshen - Le fruit de l'époque
EXTD=
EXTT0=
EXTT1=
EXTT2=
EXTT3=
EXTT4=
EXTT5=
EXTT6=
EXTT7=
EXTT8=
EXTT9=
EXTT10=
EXTT11=
EXTT12=
PLAYORDER=
